<?xml version="1.0" encoding="UTF-8" standalone="no"?>
<!-- Created with Inkscape (http://www.inkscape.org/) -->

<svg
   xmlns:dc="http://purl.org/dc/elements/1.1/"
   xmlns:cc="http://creativecommons.org/ns#"
   xmlns:rdf="http://www.w3.org/1999/02/22-rdf-syntax-ns#"
   xmlns:svg="http://www.w3.org/2000/svg"
   xmlns="http://www.w3.org/2000/svg"
   xmlns:xlink="http://www.w3.org/1999/xlink"
   version="1.1"
   width="280.22455"
   height="200.067"
   viewBox="0 0 280.22453 200.067"
   id="svg2"
   xml:space="preserve"><metadata
     id="metadata104"><rdf:RDF><cc:Work
         rdf:about=""><dc:format>image/svg+xml</dc:format><dc:type
           rdf:resource="http://purl.org/dc/dcmitype/StillImage" /><dc:title></dc:title></cc:Work></rdf:RDF></metadata><defs
     id="defs102" /><g
     transform="translate(-153.00446,-213.5)"
     id="g3944"><g
       id="Füsse" /><g
       id="g3909"><path
         d="M 269.213,320.615"
         id="path6"
         style="fill:none;stroke:#528620;stroke-width:1.5;stroke-miterlimit:10" /><path
         d="M 299.713,256.038 C 299.713,244.194 312.166,224 330.711,224"
         id="path8"
         style="fill:none;stroke:#528620;stroke-miterlimit:10" /><path
         d="m 288.588,255.393 c 0,-11.258 -11.737,-30.643 -30.768,-30.643"
         id="path10"
         style="fill:none;stroke:#528620;stroke-miterlimit:10" /><path
         d="m 313.899,271.747 c 0,11.205 -9.021,17.492 -20.152,17.492 -11.13,0 -20.152,-4.514 -20.152,-17.492 0,-9.661 9.022,-17.493 20.152,-17.493 11.131,0 20.152,7.832 20.152,17.493 z"
         id="path77"
         style="fill:#528620" /><g
         id="Körper"><g
           id="g82" /><g
           id="g84"><path
             d="m 293.465,354.964 c -0.663,0 -1.329,-0.014 -1.998,-0.042 -9.809,-0.41 -18.498,-3.846 -25.367,-9.985 0.375,7.93 1.423,15.62 3.01,22.686 1.741,2.246 7.306,5.217 15.806,6.655 6.026,1.021 21.326,2.436 33.275,-6.402 l 0.024,0.033 c 1.52,-6.69 2.549,-13.95 2.985,-21.446 -5.977,4.433 -16.292,8.501 -27.735,8.501 z"
             id="path86"
             style="fill:#528620" /><path
             d="m 294.05,378.034 c -4.027,0 -7.421,-0.423 -9.634,-0.798 -5.673,-0.96 -10.685,-2.699 -14.111,-4.788 1.467,5.407 3.261,10.348 5.319,14.625 2.667,2.631 8.015,4.641 14.266,5.27 6.71,0.674 15.362,-0.197 21.389,-4.265 2.3,-4.575 4.287,-9.975 5.883,-15.922 -7.747,4.666 -16.326,5.878 -23.112,5.878 z"
             id="path88"
             style="fill:#528620" /><path
             d="m 285.598,324.845 c 11.279,1.419 26.303,-1.099 34.586,-9.882 -0.593,-3.961 -1.435,-7.371 -2.608,-10.267 -0.996,-2.458 -2.23,-4.545 -3.753,-6.285 -4.186,-4.783 -10.551,-6.94 -20.129,-6.94 -17.95,0 -24.485,7.122 -26.702,24.152 2.959,4.692 9.829,8.119 18.606,9.222 z"
             id="path90"
             style="fill:#528620" /><path
             d="m 294.007,395.548 c -1.531,0 -3.014,-0.077 -4.418,-0.219 -4.18,-0.421 -7.912,-1.374 -10.927,-2.734 4.333,6.844 9.491,10.972 15.032,10.972 5.455,0 10.539,-4 14.829,-10.654 -4.577,1.885 -9.765,2.635 -14.516,2.635 z"
             id="path92"
             style="fill:#528620" /><path
             d="m 285.224,327.822 c -8.156,-1.025 -14.708,-3.859 -18.683,-7.958 -0.451,5.335 -0.598,11.491 -0.598,18.557 0,0.733 0.014,1.464 0.025,2.195 8.359,8.778 18.508,11.011 25.623,11.309 12.848,0.538 24.367,-4.476 29.639,-9.361 l 0.138,0.149 c 0.045,-1.426 0.075,-2.856 0.075,-4.292 0,-6.497 -0.151,-12.228 -0.562,-17.255 -0.069,-0.849 -0.146,-1.678 -0.23,-2.487 -7.574,6.732 -18.955,9.532 -29.043,9.532 -2.21,-0.001 -4.355,-0.134 -6.384,-0.389 z"
             id="path94"
             style="fill:#528620" /></g><ellipse
           cx="293.875"
           cy="258.45001"
           rx="7.125"
           ry="7.6830001"
           id="ellipse96"
           style="fill:#528620" /><g
           id="g98" /></g></g><g
       id="g3925"><g
         id="g44"><path
           d="M 280.479,311.693"
           id="path46"
           style="fill:none;stroke:#528620;stroke-width:1.5;stroke-miterlimit:10" /><path
           d="m 274.139,299.764 c -9.297,-7.575 -27.623,-14.523 -48.796,-17.769 -32.209,-4.938 -59.744,0.353 -61.5,11.817 -1.76,11.465 22.928,24.761 55.135,29.698 18.986,2.911 36.979,2.038 48.395,-1.33"
           id="path48"
           style="fill:none;stroke:#528620;stroke-width:1.5;stroke-linecap:round;stroke-miterlimit:10" /><path
           d="m 263.879,302.338 c -1.209,8.74 -43.122,10.146 -93.708,3.144"
           id="path50"
           style="fill:none;stroke:#528620;stroke-width:1.5;stroke-miterlimit:10" /><path
           d="M 269.931,324.287"
           id="path52"
           style="fill:none;stroke:#528620;stroke-width:1.5;stroke-miterlimit:10" /><path
           d="m 206.13693,321.00907 c -5.054,0.816 -12.46993,4.99793 -11.04393,13.77193 1.617,9.949 20.133,15.217 41.354,11.767 13.683,-2.225 24.758,-7.093 30.15,-12.659"
           id="path54"
           style="fill:none;stroke:#528620;stroke-width:1.5;stroke-linecap:round;stroke-miterlimit:10" /><path
           d="M 203.228,320.958"
           id="path56"
           style="fill:none;stroke:#528620;stroke-width:1.5;stroke-miterlimit:10" /><path
           d="m 224.438,324.287 c 1.382,8.5 -27.202,9.854 -29.673,10.321"
           id="path58"
           style="fill:none;stroke:#528620;stroke-width:1.5;stroke-miterlimit:10" /><path
           d="m 263.003,323.369 c 1.707,10.5 -47.246,22.478 -51.23,23.126"
           id="path60"
           style="fill:none;stroke:#528620;stroke-width:1.5;stroke-miterlimit:10" /><path
           d="m 245.46,336.667 c 0.736,4.519 -0.745,8.325 -3.229,8.729"
           id="path62"
           style="fill:none;stroke:#528620;stroke-width:1.5;stroke-miterlimit:10" /><path
           d="m 239.765,325.277 c 1.568,8.642 -10.38274,16.69422 -14.18835,17.71393"
           id="path64"
           style="fill:none;stroke:#528620;stroke-width:1.5;stroke-linecap:round;stroke-miterlimit:10" /><path
           d="m 270.431,306.137 c -14.127,-9.671 -46.546,-19.609 -84.479,-24.86"
           id="path66"
           style="fill:none;stroke:#528620;stroke-width:1.5;stroke-linecap:round;stroke-miterlimit:10" /><path
           d="M 277.7,316.744"
           id="path68"
           style="fill:none;stroke:#528620;stroke-width:1.5;stroke-miterlimit:10" /><path
           d="m 233.917,291.095 c -0.533,3.848 -30.677,2.85 -67.397,-2.233"
           id="path70"
           style="fill:none;stroke:#528620;stroke-width:1.5;stroke-miterlimit:10" /><path
           d="m 230.38,309.451 c -1.174,8.487 -5.805,14.846 -10.354,14.216"
           id="path72"
           style="fill:none;stroke:#528620;stroke-width:1.5;stroke-miterlimit:10" /><path
           d="m 214.822,293.358 c -1.318,9.521 -8.875,16.328 -16.896,15.218"
           id="path74"
           style="fill:none;stroke:#528620;stroke-width:1.5;stroke-miterlimit:10" /></g><use
         transform="matrix(-1,0,0,1,586.23345,-1.9926906e-6)"
         id="use3886"
         x="0"
         y="0"
         width="595.28003"
         height="841.89001"
         xlink:href="#g44" /></g></g></svg>