<?xml version="1.0" encoding="UTF-8" standalone="no"?>
<!-- Created with Inkscape (http://www.inkscape.org/) -->

<svg
   xmlns:dc="http://purl.org/dc/elements/1.1/"
   xmlns:cc="http://creativecommons.org/ns#"
   xmlns:rdf="http://www.w3.org/1999/02/22-rdf-syntax-ns#"
   xmlns:svg="http://www.w3.org/2000/svg"
   xmlns="http://www.w3.org/2000/svg"
   xmlns:xlink="http://www.w3.org/1999/xlink"
   version="1.1"
   width="212.40768"
   height="99.213257"
   viewBox="0 0 212.40769 99.213256"
   id="Ebene_1"
   xml:space="preserve"><metadata
   id="metadata29"><rdf:RDF><cc:Work
       rdf:about=""><dc:format>image/svg+xml</dc:format><dc:type
         rdf:resource="http://purl.org/dc/dcmitype/StillImage" /><dc:title></dc:title><dc:contributor><cc:Agent><dc:title>Julian Salamon, Markus Kohlhase</dc:title></cc:Agent></dc:contributor><dc:creator><cc:Agent><dc:title></dc:title></cc:Agent></dc:creator><dc:source>http://www.vectoropenstock.com/</dc:source></cc:Work></rdf:RDF></metadata><defs
   id="defs27"><defs
     id="defs5">
		<rect
   width="595.276"
   height="841.89001"
   x="0"
   y="0"
   id="SVGID_1_" />
	</defs><clipPath
     id="SVGID_2_">
		<use
   id="use9"
   style="overflow:visible"
   x="0"
   y="0"
   width="595.276"
   height="841.89001"
   xlink:href="#SVGID_1_" />
	</clipPath></defs>
<path
   d="m 110.03125,0 c -1.17437,-0.02771631 -1.85912,2.2610625 -2.3125,8.8125 -0.448,6.488 -1.63125,10.84625 -3.40625,12.90625 -5.186,6.006 -4.2565,8.638 -3.3125,10.875 1.526,3.624 -6.30425,5.621 -10.03125,10.125 C 84.97975,49.96075 89.3635,53.383 90.4375,54.25 L 107.25,75.46875 c 0.602,1.243 2.92475,6.294 11.34375,2.125 5.239,-2.597 8.949,-9.78075 12.125,-7.46875 1.961,1.432 4.34,2.921 11.375,-0.75 2.407,-1.261 6.8935,-1.38975 13.3125,-0.34375 11.521,1.88 10.13825,-0.07 6.65625,-4.625 -3.104,-4.062 -17.40225,-17.8135 -37.03125,-18.3125 0.506,-0.407 1.787,-1.14625 1.5,-1.90625 0.5,-0.171 0.953,-1.069 0.625,-1.5 -0.048,-0.059 -0.1205,-0.091 -0.1875,-0.125 -0.02,-0.073 -0.0468,-0.15675 -0.0937,-0.21875 -0.343,-0.414 -1.31275,-0.16575 -1.59375,0.28125 -0.675,-0.453 -1.6755,0.598 -2.1875,1 C 127.10075,24.404 116.992,7.35925 113.75,3.40625 112.15794,1.4676875 110.94465,0.02155713 110.03125,0 z m -0.125,3.9375 c 1.123,-0.748 17.4425,20.38025 9.9375,41.28125 6.668,-23.954 -13.0805,-39.17925 -9.9375,-41.28125 z m 1.90625,15.9375 c 0.665,-0.498 11.4545,11.92725 7.5625,25.03125 3.269,-14.95 -9.4225,-23.63325 -7.5625,-25.03125 z m -19.75,27.34375 c 2.411503,0.152021 7.97037,3.300438 21.125,2.3125 0.524,-0.04 -22.535,5.69725 -22.875,0.03125 0.201875,-1.84625 0.653862,-2.41285 1.75,-2.34375 z m 33.3125,1.8125 c 20.01688,-0.725629 35.56969,16.845312 34.6875,17.75 -2.642,2.706 -13.974,-19.50175 -38.75,-17.34375 1.37044,-0.221375 2.72804,-0.357875 4.0625,-0.40625 z m -2.5625,0.84375 c 12.96201,-0.539443 22.53134,11.548344 21.9375,12.09375 -1.717,1.57 -7.91775,-12.473 -23.21875,-12 0.42494,-0.0445 0.86312,-0.07635 1.28125,-0.09375 z m -5.84375,4.5 c -5.697,18.323 0.777,23.0105 -5.125,22.3125 -5.447,-1.607 5.281,-22.8135 5.125,-22.3125 z"
   transform="translate(-21.260131,9.9999991)"
   clip-path="url(#SVGID_2_)"
   id="path11"
   style="fill:#567d2d" /><path
   d="m 266.618,398.645 c 1.252,1.016 5.711,0.458 19.531,-1.514 0.911,-0.118 1.881,-0.239 2.906,-0.363 -1.293,1.266 -3.656,3.54 -4.992,4.395 -4.05,2.588 -3.501,5.25 -0.785,3.55 0.614,-0.377 1.38,-0.973 2.256,-1.825 1.138,-1.103 3.336,-3.452 4.849,-4.437 -0.356,0.965 -0.696,1.879 -1.017,2.74 -5.082,13.001 -6.647,17.215 -5.943,18.667"
   transform="translate(-197.71594,-334.1923)"
   clip-path="url(#SVGID_2_)"
   id="path13"
   style="fill:#ffffff" /><path
   d="m 439.965,367.944 c -2.563,0.471 -12.117,3.796 -16.876,12.6 -0.067,-0.325 -0.121,-1.073 -0.531,-1.119 0.035,-0.269 -0.258,-0.675 -0.53,-0.625 -0.036,0.007 -0.071,0.026 -0.1,0.047 -0.041,-0.008 -0.078,-0.013 -0.113,-0.003 -0.274,0.06 -0.386,0.549 -0.248,0.781 -0.36,0.201 -0.117,0.911 -0.053,1.237 -7.813,-6.265 -17.907,-5.624 -20.455,-5.062 -2.856,0.627 -4.032,0.94 1.075,4 2.848,1.7 4.555,3.236 5.077,4.52 1.534,3.747 2.952,3.932 4.184,4.023 2.001,0.143 1.096,4.169 2.281,6.905 1.911,4.396 4.476,3.19 5.12,2.901 0.751,-0.331 1.526,-2.487 3.82,-9.223 0.16,-0.44 0.33,-0.909 0.509,-1.406 0.276,0.883 0.764,2.479 0.844,3.286 0.243,2.437 1.584,2.805 1.435,1.18 -0.029,-0.37 -0.121,-0.857 -0.307,-1.448 -0.241,-0.773 -0.798,-2.315 -0.901,-3.232 0.358,0.386 0.698,0.753 1.014,1.097 4.735,5.317 6.293,7.002 7.114,7.017 0.703,0.013 3.539,0.128 3.587,-4.661 0.029,-2.978 -2.376,-6.34 -0.586,-7.249 1.1,-0.56 2.334,-1.284 2.289,-5.33 -0.016,-1.38 0.955,-3.458 2.916,-6.132 3.517,-4.801 2.311,-4.63 -0.565,-4.104"
   transform="translate(-240.28221,-340.2732)"
   clip-path="url(#SVGID_2_)"
   id="path17"
   style="fill:#567d2d" /><path
   d="m 22.28125,19.84375 c -0.420068,0.048 -0.908437,0.757562 -1.5625,1.71875 -1.331,1.96 -5.269,10.26375 -2.625,18.96875 -0.254,-0.164 -0.7715,-0.611 -1.0625,-0.375 -0.148,-0.194 -0.609,-0.2705 -0.75,-0.0625 -0.016,0.029 -0.02425,0.05975 -0.03125,0.09375 -0.029,0.021 -0.07475,0.0355 -0.09375,0.0625 -0.133,0.213 0.14,0.59825 0.375,0.65625 -0.098,0.362 0.5,0.67675 0.75,0.84375 -9.027,1.047 -15.0475,7.96475 -16.3125,9.96875 -1.415,2.247 -1.95075001,3.222 3.28125,1.875 2.915,-0.749 4.99525,-0.88525 6.15625,-0.40625 3.394,1.403 4.405,0.617 5.25,-0.125 1.368,-1.201 3.38425,1.9575 5.90625,2.9375 4.055,1.576 4.93225,-0.8385 5.15625,-1.4375 0.263,-0.697 -0.64725,-2.584 -3.53125,-8.375 -0.184,-0.382 -0.38875,-0.78675 -0.59375,-1.21875 0.746,0.383 2.08525,1.06825 2.65625,1.53125 1.727,1.403 2.8305,0.78775 1.6875,-0.15625 -0.256,-0.218 -0.625,-0.45875 -1.125,-0.71875 -0.651,-0.338 -2.00325,-0.978 -2.65625,-1.5 0.476,0.015 0.91975,0.0465 1.34375,0.0625 6.45,0.335 8.5285,0.397 9.0625,-0.125 0.458,-0.444 2.34025,-2.18825 -0.71875,-5.28125 -1.904,-1.924 -5.58625,-2.54625 -5.03125,-4.28125 0.34,-1.071 0.638,-2.318 -2,-4.875 -0.904,-0.876 -1.61675,-2.8375 -2.09375,-5.8125 -0.479813,-3.004875 -0.897412,-4.030465 -1.4375,-3.96875 z m -0.34375,3.875 c 0.386039,-0.06716 0.6415,0.585125 0.75,1.78125 0.131,1.432 0.8975,4.39825 2.1875,5.78125 1.511,1.624 1.6285,2.361 1.6875,2.5 -0.286,2.262 -1.612,-0.25275 -3.125,-1.34375 -0.468,-0.044 -0.44225,1.04775 -0.40625,1.34375 0.177,1.426 -0.72625,0.444 -1.28125,0.125 -0.491,-0.295 -0.673,-0.0165 -0.75,0.4375 -0.026,2.162 0.21825,4.97525 -1.34375,5.03125 -0.016,0.008 -0.02625,0 -0.03125,0 -2.089,0.093 -0.828,-13.6235 2.125,-15.5625 0.05975,-0.03912 0.132352,-0.08416 0.1875,-0.09375 z M 29.875,37.9375 c 2.449,1.219 2.85975,3.16275 2.84375,3.84375 -0.313,2.449 -4.64925,1.63175 -4.65625,1.09375 -0.006,-0.483 2.3295,-0.25425 2.4375,-0.78125 0.175,-0.841 -4.12675,-1.11175 -3.84375,-1.96875 0.332,-1.005 3.9885,0.81475 4.0625,-0.03125 0.076,-0.852 -1.52975,-1.75225 -0.84375,-2.15625 z M 15.21875,43.25 c 0.402426,-0.01594 0.647875,0.102875 0.75,0.34375 0.002,0.006 0.002,0.01625 0,0.03125 0.622,1.436 -2.0005,2.421 -3.9375,3.375 -0.378,0.267 -0.5375,0.561 -0.0625,0.875 0.527,0.366 1.7985,0.7335 0.4375,1.1875 -0.282,0.095 -1.26925,0.5345 -1.03125,0.9375 1.637,0.899 4.4795,1.04925 2.5625,2.28125 -0.149,0.006 -0.886,0.19925 -3,-0.46875 -1.801,-0.569 -4.777,0.03325 -6.125,0.53125 C 3.5265,52.81975 2.798,52.816 2.875,52.25 c 0.413875,-3.066875 9.52677,-8.888437 12.34375,-9 z m 5.0625,6.375 c 0.768464,-0.08309 2.565312,3.252813 3.21875,2.78125 0.436,-0.313 -0.692,-2.3715 -0.25,-2.5625 0.493,-0.213 2.98,3.43175 0.875,4.71875 -0.615,0.292 -2.54525,0.71075 -4.65625,-1.03125 0.088,-0.791 1.5645,0.292 2.3125,-0.125 0.737,-0.412 -2.406,-3.00375 -1.625,-3.71875 0.04156,-0.03794 0.07377,-0.05696 0.125,-0.0625 z"
   transform="translate(9.995673,9.0270558)"
   clip-path="url(#SVGID_2_)"
   id="path19"
   style="fill:#567d2d" />
</svg>