<?xml version="1.0" encoding="UTF-8" standalone="no"?>
<!-- Created with Inkscape (http://www.inkscape.org/) -->

<svg
   xmlns:dc="http://purl.org/dc/elements/1.1/"
   xmlns:cc="http://creativecommons.org/ns#"
   xmlns:rdf="http://www.w3.org/1999/02/22-rdf-syntax-ns#"
   xmlns:svg="http://www.w3.org/2000/svg"
   xmlns="http://www.w3.org/2000/svg"
   xmlns:xlink="http://www.w3.org/1999/xlink"
   version="1.1"
   width="64"
   height="64"
   id="svg2">
  <defs
     id="defs4">
    <linearGradient
       id="linearGradient3873">
      <stop
         id="stop3875"
         style="stop-color:#000000;stop-opacity:1"
         offset="0" />
      <stop
         id="stop3877"
         style="stop-color:#000000;stop-opacity:0"
         offset="1" />
    </linearGradient>
    <linearGradient
       id="linearGradient6657">
      <stop
         id="stop6659"
         style="stop-color:#128f2a;stop-opacity:1"
         offset="0" />
      <stop
         id="stop6661"
         style="stop-color:#000000;stop-opacity:1"
         offset="1" />
    </linearGradient>
    <linearGradient
       x1="-84.94136"
       y1="53.858509"
       x2="-64.975365"
       y2="23.531139"
       id="linearGradient3879"
       xlink:href="#linearGradient3873"
       gradientUnits="userSpaceOnUse"
       gradientTransform="translate(29.191567,33.302844)" />
    <filter
       color-interpolation-filters="sRGB"
       id="filter3927">
      <feGaussianBlur
         id="feGaussianBlur3929"
         stdDeviation="0.66504295" />
    </filter>
    <linearGradient
       x1="-73.296104"
       y1="9.9636383"
       x2="-73.296104"
       y2="34.358032"
       id="linearGradient4018"
       xlink:href="#linearGradient6657"
       gradientUnits="userSpaceOnUse"
       gradientTransform="matrix(1,0,0,0.66391183,0.21451834,3.5006163)" />
    <linearGradient
       x1="-73.296104"
       y1="9.9636383"
       x2="-73.296104"
       y2="34.358032"
       id="linearGradient4030"
       xlink:href="#linearGradient6657"
       gradientUnits="userSpaceOnUse"
       gradientTransform="matrix(1,0,0,0.66391183,0.21451834,3.5006163)" />
    <linearGradient
       x1="-73.296104"
       y1="9.9636383"
       x2="-73.296104"
       y2="34.358032"
       id="linearGradient4040"
       xlink:href="#linearGradient6657"
       gradientUnits="userSpaceOnUse"
       gradientTransform="matrix(1,0,0,0.66391183,0.21451834,3.5006163)" />
  </defs>
  <metadata
     id="metadata7">
    <rdf:RDF>
      <cc:Work
         rdf:about="">
        <dc:format>image/svg+xml</dc:format>
        <dc:type
           rdf:resource="http://purl.org/dc/dcmitype/StillImage" />
        <dc:title></dc:title>
        <dc:creator>
          <cc:Agent>
            <dc:title>Markus Kohlhase</dc:title>
          </cc:Agent>
        </dc:creator>
      </cc:Work>
    </rdf:RDF>
  </metadata>
  <path
     d="m -37.297981,61.187456 c -8.053716,-1.747042 -16.209692,2.032888 -18.427519,7.934973 -0.636104,1.692801 -0.856002,3.459837 -0.484881,5.056279 1.393845,5.995888 1.61403,12.873835 -2.640806,21.303775 8.207321,-8.668786 14.226896,-9.603676 23.045854,-12.402303 4.135664,-1.312419 7.307761,-3.943942 8.710337,-7.63329 2.324233,-6.113691 -2.149272,-12.512393 -10.202985,-14.259434 z"
     transform="matrix(0.93191509,-0.07500721,0.07500721,0.93191509,71.151966,-28.995194)"
     id="path3871"
     style="opacity:0.6;fill:url(#linearGradient3879);fill-opacity:1;stroke:none;filter:url(#filter3927)" />
  <path
     d="m 33.0255,10.322775 c -9.015061,0 -15.986401,7.559185 -15.986401,16.254507 0,2.493942 0.459646,4.966018 1.464647,7.031063 3.774566,7.755859 6.677446,17.060094 5.552281,29.800856 C 29.179122,49.175125 35.045786,46.122823 43.084962,39.704481 46.854947,36.694589 49.11461,32.172519 49.131406,26.732343 49.159243,17.717325 42.04056,10.322775 33.0255,10.322775 z"
     id="path3061"
     style="fill:#128f2a;fill-opacity:1;stroke:#4d4d4d;stroke-width:0.28047863;stroke-miterlimit:4;stroke-opacity:1;stroke-dasharray:none" />
  <path
     d="m 44.235702,26.630103 c 0,6.232533 -5.052465,11.284999 -11.284996,11.284999 -6.232534,0 -11.285,-5.052466 -11.285,-11.284999 0,-6.23253 5.052466,-11.284996 11.285,-11.284996 6.232531,0 11.284996,5.052466 11.284996,11.284996"
     id="path3931"
     style="fill:#ffffff;fill-opacity:1;stroke:#4d4d4d;stroke-width:0.28047863;stroke-miterlimit:4;stroke-opacity:1;stroke-dasharray:none" />
  <path
     d="m 35.09981,26.630104 a 2.1491055,2.1491055 0 0 1 -4.298211,0 2.1491055,2.1491055 0 1 1 4.298211,0 z"
     id="path7517"
     style="fill:#262626;fill-opacity:1;stroke:#000000;stroke-width:5.60957289;stroke-linecap:round;stroke-linejoin:round;stroke-miterlimit:4;stroke-opacity:1;stroke-dasharray:none;stroke-dashoffset:0" />
  <g
     transform="matrix(0.90214756,0.2454009,-0.2454009,0.90214756,105.13585,17.673352)"
     id="g4010">
    <rect
       width="4.069149"
       height="17.656733"
       x="-73.833588"
       y="9.5063086"
       id="rect4012"
       style="fill:url(#linearGradient4018);fill-opacity:1;stroke:none" />
    <path
       d="m -82.713539,-28.582877 -8.591309,-1e-6 -8.591309,1e-6 4.295655,-7.440292 4.295654,-7.440292 4.295654,7.440292 z"
       transform="matrix(0.36692982,0,0,0.34760115,-38.296542,17.422757)"
       id="path4014"
       style="fill:#128f2a;fill-opacity:1;stroke:#128f2a;stroke-width:11.83026886;stroke-linecap:square;stroke-linejoin:round;stroke-miterlimit:4;stroke-opacity:1;stroke-dasharray:none;stroke-dashoffset:0" />
    <path
       d="m -82.713539,-28.582877 -8.591309,-1e-6 -8.591309,1e-6 4.295655,-7.440292 4.295654,-7.440292 4.295654,7.440292 z"
       transform="matrix(0.36692982,0,0,0.34760115,-38.296542,17.422757)"
       id="path4016"
       style="fill:#128f2a;fill-opacity:1;stroke:#128f2a;stroke-width:11.83026886;stroke-linecap:square;stroke-linejoin:round;stroke-miterlimit:4;stroke-opacity:1;stroke-dasharray:none;stroke-dashoffset:0" />
  </g>
  <g
     transform="matrix(-0.66359719,0.65858225,-0.65858225,-0.66359719,5.7679738,94.068069)"
     id="g4022">
    <rect
       width="4.069149"
       height="17.656733"
       x="-73.833588"
       y="9.5063086"
       id="rect4024"
       style="fill:url(#linearGradient4030);fill-opacity:1;stroke:none" />
    <path
       d="m -82.713539,-28.582877 -8.591309,-1e-6 -8.591309,1e-6 4.295655,-7.440292 4.295654,-7.440292 4.295654,7.440292 z"
       transform="matrix(0.36692982,0,0,0.34760115,-38.296542,17.422757)"
       id="path4026"
       style="fill:#128f2a;fill-opacity:1;stroke:#128f2a;stroke-width:11.83026886;stroke-linecap:square;stroke-linejoin:round;stroke-miterlimit:4;stroke-opacity:1;stroke-dasharray:none;stroke-dashoffset:0" />
    <path
       d="m -82.713539,-28.582877 -8.591309,-1e-6 -8.591309,1e-6 4.295655,-7.440292 4.295654,-7.440292 4.295654,7.440292 z"
       transform="matrix(0.36692982,0,0,0.34760115,-38.296542,17.422757)"
       id="path4028"
       style="fill:#128f2a;fill-opacity:1;stroke:#128f2a;stroke-width:11.83026886;stroke-linecap:square;stroke-linejoin:round;stroke-miterlimit:4;stroke-opacity:1;stroke-dasharray:none;stroke-dashoffset:0" />
  </g>
  <g
     transform="matrix(-0.23855037,-0.90398315,0.90398315,-0.23855037,-11.492611,-31.345054)"
     id="g4032">
    <rect
       width="4.069149"
       height="17.656733"
       x="-73.833588"
       y="9.5063086"
       id="rect4034"
       style="fill:url(#linearGradient4040);fill-opacity:1;stroke:none" />
    <path
       d="m -82.713539,-28.582877 -8.591309,-1e-6 -8.591309,1e-6 4.295655,-7.440292 4.295654,-7.440292 4.295654,7.440292 z"
       transform="matrix(0.36692982,0,0,0.34760115,-38.296542,17.422757)"
       id="path4036"
       style="fill:#128f2a;fill-opacity:1;stroke:#128f2a;stroke-width:11.83026886;stroke-linecap:square;stroke-linejoin:round;stroke-miterlimit:4;stroke-opacity:1;stroke-dasharray:none;stroke-dashoffset:0" />
    <path
       d="m -82.713539,-28.582877 -8.591309,-1e-6 -8.591309,1e-6 4.295655,-7.440292 4.295654,-7.440292 4.295654,7.440292 z"
       transform="matrix(0.36692982,0,0,0.34760115,-38.296542,17.422757)"
       id="path4038"
       style="fill:#128f2a;fill-opacity:1;stroke:#128f2a;stroke-width:11.83026886;stroke-linecap:square;stroke-linejoin:round;stroke-miterlimit:4;stroke-opacity:1;stroke-dasharray:none;stroke-dashoffset:0" />
  </g>
</svg>
