<?xml version="1.0" encoding="UTF-8" standalone="no"?>
<!-- Created with Inkscape (http://www.inkscape.org/) -->

<svg
   xmlns:dc="http://purl.org/dc/elements/1.1/"
   xmlns:cc="http://creativecommons.org/ns#"
   xmlns:rdf="http://www.w3.org/1999/02/22-rdf-syntax-ns#"
   xmlns:svg="http://www.w3.org/2000/svg"
   xmlns="http://www.w3.org/2000/svg"
   version="1.2"
   width="618.68634"
   height="261.26819"
   id="svg4155">
  <title
     id="title3001">SoLaWiS Logo</title>
  <defs
     id="defs4157" />
  <metadata
     id="metadata4160">
    <rdf:RDF>
      <cc:Work
         rdf:about="">
        <dc:format>image/svg+xml</dc:format>
        <dc:type
           rdf:resource="http://purl.org/dc/dcmitype/StillImage" />
        <dc:title>SoLaWiS Logo</dc:title>
        <cc:license
           rdf:resource="http://creativecommons.org/licenses/by-nc-nd/3.0/" />
        <dc:creator>
          <cc:Agent>
            <dc:title>Markus Kohlhase</dc:title>
          </cc:Agent>
        </dc:creator>
      </cc:Work>
      <cc:License
         rdf:about="http://creativecommons.org/licenses/by-nc-nd/3.0/">
        <cc:permits
           rdf:resource="http://creativecommons.org/ns#Reproduction" />
        <cc:permits
           rdf:resource="http://creativecommons.org/ns#Distribution" />
        <cc:requires
           rdf:resource="http://creativecommons.org/ns#Notice" />
        <cc:requires
           rdf:resource="http://creativecommons.org/ns#Attribution" />
        <cc:prohibits
           rdf:resource="http://creativecommons.org/ns#CommercialUse" />
      </cc:License>
    </rdf:RDF>
  </metadata>
  <g
     transform="translate(-49.788648,-662.32978)"
     id="text3150"
     style="font-size:276.1446228px;font-style:italic;font-variant:normal;font-weight:bold;font-stretch:normal;line-height:125%;letter-spacing:0px;word-spacing:0px;fill:#000000;fill-opacity:1;stroke:none;font-family:Ubuntu;-inkscape-font-specification:Ubuntu Bold Italic">
    <path
       d="m 123.02577,859.08343 c 4.23414,4e-5 8.46835,-0.27611 12.70265,-0.82843 4.23413,-0.73635 8.0081,-1.93298 11.32193,-3.58988 3.31363,-1.65683 5.98303,-3.95803 8.00819,-6.90361 2.20905,-3.1296 3.31363,-7.08767 3.31374,-11.87422 -1.1e-4,-3.68187 -1.01264,-6.81151 -3.03759,-9.38892 -2.02517,-2.76138 -4.60252,-5.24668 -7.73205,-7.45591 -3.12974,-2.20908 -6.62757,-4.23414 -10.4935,-6.07518 -3.86611,-1.84088 -7.73213,-3.86594 -11.59807,-6.07518 -4.97068,-2.94545 -9.66513,-6.07509 -14.08338,-9.38892 -4.41837,-3.31363 -8.19234,-6.99556 -11.32193,-11.04578 -3.129685,-4.23411 -5.614984,-8.83652 -7.455902,-13.80723 -1.841006,-5.15458 -2.761488,-11.04566 -2.761447,-17.67326 -4.1e-5,-8.46829 1.564777,-16.29238 4.694459,-23.47229 3.313686,-7.36369 8.10019,-13.71501 14.35952,-19.05398 6.44331,-5.33861 14.45149,-9.48078 24.02458,-12.42651 9.57292,-3.12944 20.80279,-4.69426 33.68965,-4.69446 5.89096,2e-4 11.59794,0.55249 17.12096,1.65687 5.52276,0.92068 10.67745,2.1173 15.4641,3.58988 4.78635,1.47296 9.11262,3.22188 12.9788,5.24675 4.04995,1.84115 7.45573,3.68211 10.21735,5.52289 l -17.9494,31.75663 c -4.60256,-3.49768 -10.2175,-6.44322 -16.84482,-8.83662 -6.62761,-2.3931 -13.80736,-3.58972 -21.53928,-3.58988 -4.23433,1.6e-4 -8.28445,0.36835 -12.15037,1.10457 -3.86612,0.73655 -7.2719,2.02522 -10.21735,3.86603 -2.94563,1.65702 -5.33888,3.86617 -7.17976,6.62747 -1.65695,2.76159 -2.48538,6.16737 -2.4853,10.21735 -8e-5,3.68206 0.64425,6.8117 1.93301,9.38892 1.47269,2.39338 3.31365,4.51048 5.5229,6.35132 2.20906,1.84109 4.78641,3.49796 7.73205,4.97061 2.94543,1.47288 6.07507,3.0377 9.38891,4.69446 5.70688,2.94565 11.22976,6.07528 16.56868,9.38891 5.33866,3.31384 10.03312,7.17986 14.08338,11.59808 4.04997,4.2343 7.27166,9.11285 9.66506,14.63566 2.3931,5.52297 3.58972,12.05838 3.58988,19.60627 -1.6e-4,10.49354 -1.93317,19.60631 -5.79904,27.33832 -3.86617,7.73207 -9.29701,14.17544 -16.29253,19.33012 -6.99579,5.15471 -15.37217,8.92868 -25.12916,11.32193 -9.57311,2.57735 -20.25069,3.86602 -32.03278,3.86603 -7.73212,-1e-5 -15.00392,-0.64435 -21.81542,-1.93302 -6.627521,-1.28867 -12.702697,-2.76144 -18.225549,-4.41831 -5.338826,-1.84096 -10.03328,-3.77397 -14.083376,-5.79904 -3.866041,-2.02505 -6.995677,-3.86601 -9.388917,-5.52289 l 18.225545,-32.86121 c 2.209125,1.47282 4.878521,3.03763 8.008194,4.69446 3.129598,1.65691 6.627427,3.22172 10.493495,4.69446 4.050068,1.4728 8.284288,2.76148 12.702658,3.86602 4.41824,0.92052 9.02065,1.38076 13.80723,1.38072"
       id="path3097" />
  </g>
  <g
     transform="matrix(5.9624416,0,0,5.9624416,-881.59509,-404.84425)"
     id="flowRoot3162"
     style="font-size:18px;font-style:normal;font-weight:normal;line-height:125%;letter-spacing:0.05031496px;word-spacing:0px;fill:#567d2d;fill-opacity:1;stroke:none;font-family:Sans">
    <path
       d="m 176.99025,94.830903 2.79,-0.432 -0.684,2.79 2.988,0 -0.54,2.196 -2.97,0 -0.792,3.311997 c -0.072,0.27601 -0.12,0.53401 -0.144,0.774 -0.012,0.24001 0.018,0.45001 0.09,0.63 0.084,0.16801 0.222,0.3 0.414,0.396 0.19199,0.096 0.45599,0.144 0.792,0.144 0.28799,0 0.56399,-0.024 0.828,-0.072 0.27599,-0.06 0.55199,-0.138 0.828,-0.234 l 0.198,2.052 c -0.36001,0.132 -0.75001,0.246 -1.17,0.342 -0.42001,0.096 -0.91801,0.144 -1.494,0.144 -0.828,0 -1.47,-0.12 -1.926,-0.36 -0.456,-0.252 -0.78,-0.588 -0.972,-1.008 -0.192,-0.432 -0.276,-0.924 -0.252,-1.476 0.024,-0.55199 0.108,-1.13399 0.252,-1.746 l 1.764,-7.451997"
       id="path3080"
       style="font-style:italic;font-variant:normal;font-weight:bold;font-stretch:normal;fill:#567d2d;fill-opacity:1;font-family:Ubuntu;-inkscape-font-specification:Ubuntu Bold Italic" />
    <path
       d="m 191.87285,97.188903 -1.278,5.381997 c -0.16801,0.68401 -0.21601,1.37401 -0.144,2.07 0.072,0.684 0.20999,1.296 0.414,1.836 l -2.394,0.342 c -0.13201,-0.264 -0.25801,-0.558 -0.378,-0.882 -0.33601,0.264 -0.71401,0.486 -1.134,0.666 -0.42001,0.18 -0.88801,0.27 -1.404,0.27 -0.70801,0 -1.28401,-0.126 -1.728,-0.378 -0.43201,-0.264 -0.75601,-0.606 -0.972,-1.026 -0.21601,-0.432 -0.33601,-0.924 -0.36,-1.476 -0.012,-0.55199 0.054,-1.11599 0.198,-1.692 l 1.224,-5.111997 2.682,0 -1.206,5.075997 c -0.06,0.26401 -0.11401,0.53401 -0.162,0.81 -0.036,0.27601 -0.036,0.53401 0,0.774 0.036,0.22801 0.12599,0.42001 0.27,0.576 0.15599,0.144 0.39599,0.216 0.72,0.216 0.27599,0 0.52799,-0.048 0.756,-0.144 0.23999,-0.10799 0.49199,-0.28799 0.756,-0.54 0.024,-0.29999 0.06,-0.61199 0.108,-0.936 0.06,-0.33599 0.11999,-0.64199 0.18,-0.918 l 1.17,-4.913997 2.682,0"
       id="path3082"
       style="font-style:italic;font-variant:normal;font-weight:bold;font-stretch:normal;fill:#567d2d;fill-opacity:1;font-family:Ubuntu;-inkscape-font-specification:Ubuntu Bold Italic" />
    <path
       d="m 195.02057,94.830903 2.79,-0.432 -0.684,2.79 2.988,0 -0.54,2.196 -2.97,0 -0.792,3.311997 c -0.072,0.27601 -0.12001,0.53401 -0.144,0.774 -0.012,0.24001 0.018,0.45001 0.09,0.63 0.084,0.16801 0.22199,0.3 0.414,0.396 0.19199,0.096 0.45599,0.144 0.792,0.144 0.28799,0 0.56399,-0.024 0.828,-0.072 0.27599,-0.06 0.55199,-0.138 0.828,-0.234 l 0.198,2.052 c -0.36001,0.132 -0.75001,0.246 -1.17,0.342 -0.42001,0.096 -0.91801,0.144 -1.494,0.144 -0.82801,0 -1.47001,-0.12 -1.926,-0.36 -0.45601,-0.252 -0.78,-0.588 -0.972,-1.008 -0.192,-0.432 -0.276,-0.924 -0.252,-1.476 0.024,-0.55199 0.108,-1.13399 0.252,-1.746 l 1.764,-7.451997"
       id="path3084"
       style="font-style:italic;font-variant:normal;font-weight:bold;font-stretch:normal;fill:#567d2d;fill-opacity:1;font-family:Ubuntu;-inkscape-font-specification:Ubuntu Bold Italic" />
    <path
       d="m 202.55916,94.830903 2.79,-0.432 -0.684,2.79 2.988,0 -0.54,2.196 -2.97,0 -0.792,3.311997 c -0.072,0.27601 -0.12,0.53401 -0.144,0.774 -0.012,0.24001 0.018,0.45001 0.09,0.63 0.084,0.16801 0.222,0.3 0.414,0.396 0.192,0.096 0.456,0.144 0.792,0.144 0.288,0 0.564,-0.024 0.828,-0.072 0.276,-0.06 0.552,-0.138 0.828,-0.234 l 0.198,2.052 c -0.36,0.132 -0.75,0.246 -1.17,0.342 -0.42,0.096 -0.918,0.144 -1.494,0.144 -0.828,0 -1.47,-0.12 -1.926,-0.36 -0.456,-0.252 -0.78,-0.588 -0.972,-1.008 -0.192,-0.432 -0.276,-0.924 -0.252,-1.476 0.024,-0.55199 0.108,-1.13399 0.252,-1.746 l 1.764,-7.451997"
       id="path3086"
       style="font-style:italic;font-variant:normal;font-weight:bold;font-stretch:normal;fill:#567d2d;fill-opacity:1;font-family:Ubuntu;-inkscape-font-specification:Ubuntu Bold Italic" />
    <path
       d="m 215.3442,105.4689 c -0.18001,0.78 -0.42001,1.452 -0.72,2.016 -0.28801,0.576 -0.65401,1.05 -1.098,1.422 -0.43201,0.384 -0.95401,0.666 -1.566,0.846 -0.61201,0.192 -1.32601,0.288 -2.142,0.288 -0.75601,0 -1.39201,-0.072 -1.908,-0.216 -0.516,-0.132 -0.984,-0.3 -1.404,-0.504 l 0.9,-2.124 c 0.372,0.168 0.75599,0.312 1.152,0.432 0.40799,0.12 0.90599,0.18 1.494,0.18 0.76799,0 1.34399,-0.174 1.728,-0.522 0.39599,-0.336 0.65399,-0.774 0.774,-1.314 l 0.072,-0.342 c -0.24001,0.12 -0.49801,0.216 -0.774,0.288 -0.26401,0.072 -0.54601,0.108 -0.846,0.108 -0.56401,0 -1.05001,-0.084 -1.458,-0.252 -0.40801,-0.18 -0.74401,-0.426 -1.008,-0.738 -0.25201,-0.312 -0.44401,-0.67799 -0.576,-1.098 -0.12,-0.43199 -0.18,-0.89999 -0.18,-1.404 0,-0.91199 0.168,-1.71599 0.504,-2.412 0.33599,-0.70799 0.77999,-1.295989 1.332,-1.763997 0.56399,-0.467991 1.20599,-0.821991 1.926,-1.062 0.73199,-0.239991 1.49399,-0.359991 2.286,-0.36 0.57599,9e-6 1.14599,0.06001 1.71,0.18 0.56399,0.120009 1.11599,0.306009 1.656,0.558 l -1.854,7.793997 m -1.188,-6.209997 c -0.20401,-0.04799 -0.45601,-0.07199 -0.756,-0.072 -0.45601,7e-6 -0.86401,0.08401 -1.224,0.252 -0.36001,0.156007 -0.67201,0.372007 -0.936,0.647997 -0.25201,0.27601 -0.45001,0.61201 -0.594,1.008 -0.13201,0.38401 -0.19801,0.79801 -0.198,1.242 -1e-5,0.21601 0.018,0.42001 0.054,0.612 0.036,0.18001 0.10199,0.34201 0.198,0.486 0.096,0.13201 0.22799,0.24001 0.396,0.324 0.16799,0.084 0.37799,0.12601 0.63,0.126 0.16799,1e-5 0.38999,-0.03 0.666,-0.09 0.28799,-0.06 0.54599,-0.19799 0.774,-0.414 l 0.99,-4.121997"
       id="path3088"
       style="font-style:italic;font-variant:normal;font-weight:bold;font-stretch:normal;fill:#567d2d;fill-opacity:1;font-family:Ubuntu;-inkscape-font-specification:Ubuntu Bold Italic" />
    <path
       d="m 226.29183,102.5709 c -0.16801,0.68401 -0.21601,1.37401 -0.144,2.07 0.072,0.684 0.20999,1.296 0.414,1.836 l -2.394,0.342 c -0.072,-0.144 -0.13801,-0.282 -0.198,-0.414 -0.06,-0.132 -0.12001,-0.282 -0.18,-0.45 -0.33601,0.276 -0.70801,0.504 -1.116,0.684 -0.40801,0.18 -0.86401,0.27 -1.368,0.27 -0.60001,0 -1.11601,-0.102 -1.548,-0.306 -0.42001,-0.216 -0.76801,-0.498 -1.044,-0.846 -0.26401,-0.36 -0.45601,-0.774 -0.576,-1.242 -0.12001,-0.47999 -0.18001,-0.98999 -0.18,-1.53 -1e-5,-0.82799 0.14399,-1.60799 0.432,-2.34 0.29999,-0.731991 0.70799,-1.36799 1.224,-1.907997 0.52799,-0.551992 1.14599,-0.983991 1.854,-1.296 0.70799,-0.311991 1.47599,-0.467991 2.304,-0.468 0.10799,9e-6 0.29399,0.006 0.558,0.018 0.27599,0.01201 0.58799,0.04201 0.936,0.09 0.34799,0.03601 0.71399,0.102009 1.098,0.198 0.38398,0.09601 0.74998,0.228009 1.098,0.396 l -1.17,4.895997 m -1.872,-3.311997 c -0.15601,-0.02399 -0.30001,-0.04199 -0.432,-0.054 -0.12001,-0.01199 -0.27001,-0.01799 -0.45,-0.018 -0.40801,7e-6 -0.79201,0.102007 -1.152,0.306 -0.34801,0.204007 -0.65401,0.474006 -0.918,0.809997 -0.26401,0.32401 -0.47401,0.70201 -0.63,1.134 -0.14401,0.43201 -0.21601,0.88201 -0.216,1.35 -10e-6,0.57601 0.096,1.03201 0.288,1.368 0.19199,0.336 0.54599,0.504 1.062,0.504 0.27599,0 0.52199,-0.054 0.738,-0.162 0.22799,-0.10799 0.46799,-0.28799 0.72,-0.54 0.024,-0.29999 0.06,-0.61199 0.108,-0.936 0.06,-0.33599 0.11999,-0.64199 0.18,-0.918 l 0.702,-2.843997"
       id="path3090"
       style="font-style:italic;font-variant:normal;font-weight:bold;font-stretch:normal;fill:#567d2d;fill-opacity:1;font-family:Ubuntu;-inkscape-font-specification:Ubuntu Bold Italic" />
    <path
       d="m 235.28617,99.492903 c -0.24001,-0.05999 -0.48001,-0.113993 -0.72,-0.162 -0.228,-0.05999 -0.57,-0.08999 -1.026,-0.09 -0.168,7e-6 -0.354,0.01801 -0.558,0.054 -0.204,0.02401 -0.372,0.05401 -0.504,0.09 l -1.746,7.271997 -2.682,0 2.16,-8.963997 c 0.516,-0.167991 1.092,-0.323991 1.728,-0.468 0.648,-0.155991 1.374,-0.233991 2.178,-0.234 0.29999,9e-6 0.62999,0.03001 0.99,0.09 0.37199,0.04801 0.69599,0.132009 0.972,0.252 l -0.792,2.16"
       id="path3092"
       style="font-style:italic;font-variant:normal;font-weight:bold;font-stretch:normal;fill:#567d2d;fill-opacity:1;font-family:Ubuntu;-inkscape-font-specification:Ubuntu Bold Italic" />
    <path
       d="m 238.19792,94.830903 2.79,-0.432 -0.684,2.79 2.988,0 -0.54,2.196 -2.97,0 -0.792,3.311997 c -0.072,0.27601 -0.12,0.53401 -0.144,0.774 -0.012,0.24001 0.018,0.45001 0.09,0.63 0.084,0.16801 0.222,0.3 0.414,0.396 0.192,0.096 0.456,0.144 0.792,0.144 0.288,0 0.564,-0.024 0.828,-0.072 0.276,-0.06 0.55199,-0.138 0.828,-0.234 l 0.198,2.052 c -0.36001,0.132 -0.75,0.246 -1.17,0.342 -0.42,0.096 -0.918,0.144 -1.494,0.144 -0.828,0 -1.47,-0.12 -1.926,-0.36 -0.456,-0.252 -0.78,-0.588 -0.972,-1.008 -0.192,-0.432 -0.276,-0.924 -0.252,-1.476 0.024,-0.55199 0.108,-1.13399 0.252,-1.746 l 1.764,-7.451997"
       id="path3094"
       style="font-style:italic;font-variant:normal;font-weight:bold;font-stretch:normal;fill:#567d2d;fill-opacity:1;font-family:Ubuntu;-inkscape-font-specification:Ubuntu Bold Italic" />
  </g>
  <g
     transform="matrix(7.68332,0,0,7.68332,-543.76292,-1050.1932)"
     id="flowRoot3170"
     style="font-size:18px;font-style:italic;font-variant:normal;font-weight:bold;font-stretch:normal;line-height:125%;letter-spacing:0px;word-spacing:0px;fill:#000000;fill-opacity:1;stroke:none;font-family:Ubuntu;-inkscape-font-specification:Ubuntu Bold Italic">
    <path
       d="m 97.57525,155.81515 c -0.636005,0 -1.188004,-0.096 -1.656,-0.288 -0.468003,-0.192 -0.858003,-0.462 -1.17,-0.81 -0.300002,-0.348 -0.528002,-0.756 -0.684,-1.224 -0.156002,-0.47999 -0.234002,-1.00799 -0.234,-1.584 -2e-6,-0.71999 0.113998,-1.43999 0.342,-2.16 0.239998,-0.71999 0.587997,-1.36799 1.044,-1.944 0.455996,-0.57599 1.013996,-1.04399 1.674,-1.404 0.659994,-0.37199 1.415994,-0.55799 2.268,-0.558 0.623992,1e-5 1.16999,0.096 1.638,0.288 0.47999,0.19201 0.86999,0.46201 1.17,0.81 0.31199,0.34801 0.54599,0.76201 0.702,1.242 0.15599,0.46801 0.23399,0.99001 0.234,1.566 -1e-5,0.72001 -0.11401,1.44001 -0.342,2.16 -0.22801,0.72001 -0.56401,1.36801 -1.008,1.944 -0.44401,0.576 -1.00201,1.05 -1.674,1.422 -0.660007,0.36 -1.428006,0.54 -2.304,0.54 m 1.332,-7.704 c -0.396006,1e-5 -0.744006,0.11401 -1.044,0.342 -0.300006,0.22801 -0.552005,0.51601 -0.756,0.864 -0.204005,0.34801 -0.360005,0.73201 -0.468,1.152 -0.09601,0.40801 -0.144004,0.79801 -0.144,1.17 -4e-6,0.61201 0.096,1.08601 0.288,1.422 0.191995,0.324 0.539995,0.486 1.044,0.486 0.395994,0 0.743993,-0.114 1.044,-0.342 0.299993,-0.22799 0.551993,-0.51599 0.756,-0.864 0.203992,-0.34799 0.353992,-0.72599 0.45,-1.134 0.10799,-0.41999 0.16199,-0.81599 0.162,-1.188 -1e-5,-0.61199 -0.096,-1.07999 -0.288,-1.404 -0.192008,-0.33599 -0.540007,-0.50399 -1.044,-0.504"
       id="path3071" />
    <path
       d="m 112.60919,153.18715 -0.576,2.376 -8.316,0 2.988,-12.474 2.808,0 -2.43,10.098 5.526,0"
       id="path3073" />
    <path
       d="m 122.30978,151.47715 c -0.16801,0.68401 -0.21601,1.37401 -0.144,2.07 0.072,0.684 0.20999,1.296 0.414,1.836 l -2.394,0.342 c -0.072,-0.144 -0.13801,-0.282 -0.198,-0.414 -0.06,-0.132 -0.12001,-0.282 -0.18,-0.45 -0.33601,0.276 -0.70801,0.504 -1.116,0.684 -0.408,0.18 -0.864,0.27 -1.368,0.27 -0.6,0 -1.116,-0.102 -1.548,-0.306 -0.42,-0.216 -0.768,-0.498 -1.044,-0.846 -0.264,-0.36 -0.456,-0.774 -0.576,-1.242 -0.12,-0.47999 -0.18,-0.98999 -0.18,-1.53 0,-0.82799 0.144,-1.60799 0.432,-2.34 0.3,-0.73199 0.708,-1.36799 1.224,-1.908 0.528,-0.55199 1.146,-0.98399 1.854,-1.296 0.708,-0.31199 1.47599,-0.46799 2.304,-0.468 0.10799,1e-5 0.29399,0.006 0.558,0.018 0.27599,0.012 0.58799,0.042 0.936,0.09 0.34799,0.036 0.71399,0.10201 1.098,0.198 0.38399,0.096 0.74999,0.22801 1.098,0.396 l -1.17,4.896 m -1.872,-3.312 c -0.15601,-0.024 -0.30001,-0.042 -0.432,-0.054 -0.12001,-0.012 -0.27001,-0.018 -0.45,-0.018 -0.40801,1e-5 -0.79201,0.10201 -1.152,0.306 -0.348,0.20401 -0.654,0.47401 -0.918,0.81 -0.264,0.32401 -0.474,0.70201 -0.63,1.134 -0.144,0.43201 -0.216,0.88201 -0.216,1.35 0,0.57601 0.096,1.03201 0.288,1.368 0.192,0.336 0.546,0.504 1.062,0.504 0.276,0 0.52199,-0.054 0.738,-0.162 0.22799,-0.10799 0.46799,-0.28799 0.72,-0.54 0.024,-0.29999 0.06,-0.61199 0.108,-0.936 0.06,-0.33599 0.11999,-0.64199 0.18,-0.918 l 0.702,-2.844"
       id="path3075" />
    <path
       d="m 134.76381,144.42115 c 0.024,0.49201 0.054,1.05001 0.09,1.674 0.048,0.62401 0.096,1.27201 0.144,1.944 0.06,0.66001 0.11999,1.32001 0.18,1.98 0.06,0.66001 0.11999,1.27201 0.18,1.836 0.31199,-0.61199 0.62999,-1.27199 0.954,-1.98 0.32399,-0.70799 0.64799,-1.43999 0.972,-2.196 0.32399,-0.75599 0.64199,-1.52399 0.954,-2.304 0.32399,-0.77999 0.62999,-1.54199 0.918,-2.286 l 2.97,0 c -0.93602,2.28001 -1.89001,4.45201 -2.862,6.516 -0.97201,2.05201 -2.01601,4.038 -3.132,5.958 l -2.628,0 c -0.096,-0.66 -0.18601,-1.29 -0.27,-1.89 -0.072,-0.61199 -0.14401,-1.21199 -0.216,-1.8 -0.06,-0.58799 -0.12001,-1.18199 -0.18,-1.782 -0.048,-0.59999 -0.096,-1.22399 -0.144,-1.872 -0.68401,1.27201 -1.36201,2.52001 -2.034,3.744 -0.66,1.21201 -1.368,2.412 -2.124,3.6 l -2.628,0 c -0.096,-1.116 -0.168,-2.22 -0.216,-3.312 -0.036,-1.09199 -0.054,-2.20199 -0.054,-3.33 0,-0.97199 0.018,-1.93799 0.054,-2.898 0.036,-0.97199 0.084,-1.94999 0.144,-2.934 l 2.826,0 c -0.06,1.05601 -0.12,2.09401 -0.18,3.114 -0.048,1.00801 -0.072,2.05801 -0.072,3.15 0,0.40801 0,0.82201 0,1.242 0,0.42001 0.012,0.84001 0.036,1.26 0.336,-0.58799 0.69,-1.21199 1.062,-1.872 0.372,-0.65999 0.738,-1.31999 1.098,-1.98 0.35999,-0.65999 0.70199,-1.29599 1.026,-1.908 0.32399,-0.62399 0.59999,-1.18199 0.828,-1.674 l 2.304,0"
       id="path3077" />
  </g>
  <g
     transform="translate(-49.788648,-662.32978)"
     id="text5195"
     style="font-size:137.94831848px;font-style:italic;font-variant:normal;font-weight:bold;font-stretch:normal;line-height:125%;letter-spacing:0px;word-spacing:0px;fill:#000000;fill-opacity:1;stroke:none;font-family:Ubuntu;-inkscape-font-specification:Ubuntu Bold Italic">
    <path
       d="m 608.87345,807.94977 -20.41635,0 17.24354,-72.56082 20.5543,0 -17.38149,72.56082"
       id="path3068" />
  </g>
  <path
     d="m 563.54727,63.75982 c 26.20828,0 36.34067,-12.839466 45.13909,-53.75982 -34.66173,9.627437 -56.18136,26.61822 -45.13909,53.75982 z"
     id="path11910"
     style="fill:#567d2d;fill-opacity:1;stroke:none" />
</svg>
