<?xml version="1.0" encoding="UTF-8" standalone="no"?>
<!-- Created with Inkscape (http://www.inkscape.org/) -->

<svg
   xmlns:dc="http://purl.org/dc/elements/1.1/"
   xmlns:cc="http://creativecommons.org/ns#"
   xmlns:rdf="http://www.w3.org/1999/02/22-rdf-syntax-ns#"
   xmlns:svg="http://www.w3.org/2000/svg"
   xmlns="http://www.w3.org/2000/svg"
   version="1.1"
   width="550"
   height="230"
   id="svg3040">
  <defs
     id="defs3042" />
  <metadata
     id="metadata3045">
    <rdf:RDF>
      <cc:Work
         rdf:about="">
        <dc:format>image/svg+xml</dc:format>
        <dc:type
           rdf:resource="http://purl.org/dc/dcmitype/StillImage" />
        <dc:title></dc:title>
        <dc:contributor>
          <cc:Agent>
            <dc:title>Julian Salamon, Markus Kohlhase</dc:title>
          </cc:Agent>
        </dc:contributor>
      </cc:Work>
    </rdf:RDF>
  </metadata>
  <g
     transform="translate(0,-822.36218)"
     id="layer1">
    <g
       transform="matrix(0.71967458,0,0,0.71967458,-10.607212,365.48401)"
       id="layer1-7">
      <g
         id="text3150"
         style="font-size:276.1446228px;font-style:italic;font-variant:normal;font-weight:bold;font-stretch:normal;line-height:125%;letter-spacing:0px;word-spacing:0px;fill:#000000;fill-opacity:1;stroke:none;font-family:Ubuntu;-inkscape-font-specification:Ubuntu Bold Italic">
        <path
           d="m 123.02577,859.08343 c 4.23414,4e-5 8.46835,-0.27611 12.70265,-0.82843 4.23413,-0.73635 8.0081,-1.93298 11.32193,-3.58988 3.31363,-1.65683 5.98303,-3.95803 8.00819,-6.90361 2.20905,-3.1296 3.31363,-7.08767 3.31374,-11.87422 -1.1e-4,-3.68187 -1.01264,-6.81151 -3.03759,-9.38892 -2.02517,-2.76138 -4.60252,-5.24668 -7.73205,-7.45591 -3.12974,-2.20908 -6.62757,-4.23414 -10.4935,-6.07518 -3.86611,-1.84088 -7.73213,-3.86594 -11.59807,-6.07518 -4.97068,-2.94545 -9.66513,-6.07509 -14.08338,-9.38892 -4.41837,-3.31363 -8.19234,-6.99556 -11.32193,-11.04578 -3.129685,-4.23411 -5.614984,-8.83652 -7.455902,-13.80723 -1.841006,-5.15458 -2.761488,-11.04566 -2.761447,-17.67326 -4.1e-5,-8.46829 1.564777,-16.29238 4.694459,-23.47229 3.313686,-7.36369 8.10019,-13.71501 14.35952,-19.05398 6.44331,-5.33861 14.45149,-9.48078 24.02458,-12.42651 9.57292,-3.12944 20.80279,-4.69426 33.68965,-4.69446 5.89096,2e-4 11.59794,0.55249 17.12096,1.65687 5.52276,0.92068 10.67745,2.1173 15.4641,3.58988 4.78635,1.47296 9.11262,3.22188 12.9788,5.24675 4.04995,1.84115 7.45573,3.68211 10.21735,5.52289 l -17.9494,31.75663 c -4.60256,-3.49768 -10.2175,-6.44322 -16.84482,-8.83662 -6.62761,-2.3931 -13.80736,-3.58972 -21.53928,-3.58988 -4.23433,1.6e-4 -8.28445,0.36835 -12.15037,1.10457 -3.86612,0.73655 -7.2719,2.02522 -10.21735,3.86603 -2.94563,1.65702 -5.33888,3.86617 -7.17976,6.62747 -1.65695,2.76159 -2.48538,6.16737 -2.4853,10.21735 -8e-5,3.68206 0.64425,6.8117 1.93301,9.38892 1.47269,2.39338 3.31365,4.51048 5.5229,6.35132 2.20906,1.84109 4.78641,3.49796 7.73205,4.97061 2.94543,1.47288 6.07507,3.0377 9.38891,4.69446 5.70688,2.94565 11.22976,6.07528 16.56868,9.38891 5.33866,3.31384 10.03312,7.17986 14.08338,11.59808 4.04997,4.2343 7.27166,9.11285 9.66506,14.63566 2.3931,5.52297 3.58972,12.05838 3.58988,19.60627 -1.6e-4,10.49354 -1.93317,19.60631 -5.79904,27.33832 -3.86617,7.73207 -9.29701,14.17544 -16.29253,19.33012 -6.99579,5.15471 -15.37217,8.92868 -25.12916,11.32193 -9.57311,2.57735 -20.25069,3.86602 -32.03278,3.86603 -7.73212,-1e-5 -15.00392,-0.64435 -21.81542,-1.93302 -6.627521,-1.28867 -12.702697,-2.76144 -18.225549,-4.41831 -5.338826,-1.84096 -10.03328,-3.77397 -14.083376,-5.79904 -3.866041,-2.02505 -6.995677,-3.86601 -9.388917,-5.52289 l 18.225545,-32.86121 c 2.209125,1.47282 4.878521,3.03763 8.008194,4.69446 3.129598,1.65691 6.627427,3.22172 10.493495,4.69446 4.050068,1.4728 8.284288,2.76148 12.702658,3.86602 4.41824,0.92052 9.02065,1.38076 13.80723,1.38072"
           id="path3097" />
      </g>
      <g
         transform="matrix(5.9624416,0,0,5.9624416,-831.80644,257.48553)"
         id="flowRoot3162"
         style="font-size:18px;font-style:normal;font-weight:normal;line-height:125%;letter-spacing:0.05031496px;word-spacing:0px;fill:#4d4d4d;fill-opacity:1;stroke:none;font-family:Sans">
        <path
           d="m 176.99025,94.830903 2.79,-0.432 -0.684,2.79 2.988,0 -0.54,2.196 -2.97,0 -0.792,3.311997 c -0.072,0.27601 -0.12,0.53401 -0.144,0.774 -0.012,0.24001 0.018,0.45001 0.09,0.63 0.084,0.16801 0.222,0.3 0.414,0.396 0.19199,0.096 0.45599,0.144 0.792,0.144 0.28799,0 0.56399,-0.024 0.828,-0.072 0.27599,-0.06 0.55199,-0.138 0.828,-0.234 l 0.198,2.052 c -0.36001,0.132 -0.75001,0.246 -1.17,0.342 -0.42001,0.096 -0.91801,0.144 -1.494,0.144 -0.828,0 -1.47,-0.12 -1.926,-0.36 -0.456,-0.252 -0.78,-0.588 -0.972,-1.008 -0.192,-0.432 -0.276,-0.924 -0.252,-1.476 0.024,-0.55199 0.108,-1.13399 0.252,-1.746 l 1.764,-7.451997"
           id="path3080"
           style="font-style:italic;font-variant:normal;font-weight:bold;font-stretch:normal;fill:#4d4d4d;font-family:Ubuntu;-inkscape-font-specification:Ubuntu Bold Italic" />
        <path
           d="m 191.87285,97.188903 -1.278,5.381997 c -0.16801,0.68401 -0.21601,1.37401 -0.144,2.07 0.072,0.684 0.20999,1.296 0.414,1.836 l -2.394,0.342 c -0.13201,-0.264 -0.25801,-0.558 -0.378,-0.882 -0.33601,0.264 -0.71401,0.486 -1.134,0.666 -0.42001,0.18 -0.88801,0.27 -1.404,0.27 -0.70801,0 -1.28401,-0.126 -1.728,-0.378 -0.43201,-0.264 -0.75601,-0.606 -0.972,-1.026 -0.21601,-0.432 -0.33601,-0.924 -0.36,-1.476 -0.012,-0.55199 0.054,-1.11599 0.198,-1.692 l 1.224,-5.111997 2.682,0 -1.206,5.075997 c -0.06,0.26401 -0.11401,0.53401 -0.162,0.81 -0.036,0.27601 -0.036,0.53401 0,0.774 0.036,0.22801 0.12599,0.42001 0.27,0.576 0.15599,0.144 0.39599,0.216 0.72,0.216 0.27599,0 0.52799,-0.048 0.756,-0.144 0.23999,-0.10799 0.49199,-0.28799 0.756,-0.54 0.024,-0.29999 0.06,-0.61199 0.108,-0.936 0.06,-0.33599 0.11999,-0.64199 0.18,-0.918 l 1.17,-4.913997 2.682,0"
           id="path3082"
           style="font-style:italic;font-variant:normal;font-weight:bold;font-stretch:normal;fill:#4d4d4d;font-family:Ubuntu;-inkscape-font-specification:Ubuntu Bold Italic" />
        <path
           d="m 195.02057,94.830903 2.79,-0.432 -0.684,2.79 2.988,0 -0.54,2.196 -2.97,0 -0.792,3.311997 c -0.072,0.27601 -0.12001,0.53401 -0.144,0.774 -0.012,0.24001 0.018,0.45001 0.09,0.63 0.084,0.16801 0.22199,0.3 0.414,0.396 0.19199,0.096 0.45599,0.144 0.792,0.144 0.28799,0 0.56399,-0.024 0.828,-0.072 0.27599,-0.06 0.55199,-0.138 0.828,-0.234 l 0.198,2.052 c -0.36001,0.132 -0.75001,0.246 -1.17,0.342 -0.42001,0.096 -0.91801,0.144 -1.494,0.144 -0.82801,0 -1.47001,-0.12 -1.926,-0.36 -0.45601,-0.252 -0.78,-0.588 -0.972,-1.008 -0.192,-0.432 -0.276,-0.924 -0.252,-1.476 0.024,-0.55199 0.108,-1.13399 0.252,-1.746 l 1.764,-7.451997"
           id="path3084"
           style="font-style:italic;font-variant:normal;font-weight:bold;font-stretch:normal;fill:#4d4d4d;font-family:Ubuntu;-inkscape-font-specification:Ubuntu Bold Italic" />
        <path
           d="m 202.55916,94.830903 2.79,-0.432 -0.684,2.79 2.988,0 -0.54,2.196 -2.97,0 -0.792,3.311997 c -0.072,0.27601 -0.12,0.53401 -0.144,0.774 -0.012,0.24001 0.018,0.45001 0.09,0.63 0.084,0.16801 0.222,0.3 0.414,0.396 0.192,0.096 0.456,0.144 0.792,0.144 0.288,0 0.564,-0.024 0.828,-0.072 0.276,-0.06 0.552,-0.138 0.828,-0.234 l 0.198,2.052 c -0.36,0.132 -0.75,0.246 -1.17,0.342 -0.42,0.096 -0.918,0.144 -1.494,0.144 -0.828,0 -1.47,-0.12 -1.926,-0.36 -0.456,-0.252 -0.78,-0.588 -0.972,-1.008 -0.192,-0.432 -0.276,-0.924 -0.252,-1.476 0.024,-0.55199 0.108,-1.13399 0.252,-1.746 l 1.764,-7.451997"
           id="path3086"
           style="font-style:italic;font-variant:normal;font-weight:bold;font-stretch:normal;fill:#4d4d4d;font-family:Ubuntu;-inkscape-font-specification:Ubuntu Bold Italic" />
        <path
           d="m 215.3442,105.4689 c -0.18001,0.78 -0.42001,1.452 -0.72,2.016 -0.28801,0.576 -0.65401,1.05 -1.098,1.422 -0.43201,0.384 -0.95401,0.666 -1.566,0.846 -0.61201,0.192 -1.32601,0.288 -2.142,0.288 -0.75601,0 -1.39201,-0.072 -1.908,-0.216 -0.516,-0.132 -0.984,-0.3 -1.404,-0.504 l 0.9,-2.124 c 0.372,0.168 0.75599,0.312 1.152,0.432 0.40799,0.12 0.90599,0.18 1.494,0.18 0.76799,0 1.34399,-0.174 1.728,-0.522 0.39599,-0.336 0.65399,-0.774 0.774,-1.314 l 0.072,-0.342 c -0.24001,0.12 -0.49801,0.216 -0.774,0.288 -0.26401,0.072 -0.54601,0.108 -0.846,0.108 -0.56401,0 -1.05001,-0.084 -1.458,-0.252 -0.40801,-0.18 -0.74401,-0.426 -1.008,-0.738 -0.25201,-0.312 -0.44401,-0.67799 -0.576,-1.098 -0.12,-0.43199 -0.18,-0.89999 -0.18,-1.404 0,-0.91199 0.168,-1.71599 0.504,-2.412 0.33599,-0.70799 0.77999,-1.295989 1.332,-1.763997 0.56399,-0.467991 1.20599,-0.821991 1.926,-1.062 0.73199,-0.239991 1.49399,-0.359991 2.286,-0.36 0.57599,9e-6 1.14599,0.06001 1.71,0.18 0.56399,0.120009 1.11599,0.306009 1.656,0.558 l -1.854,7.793997 m -1.188,-6.209997 c -0.20401,-0.04799 -0.45601,-0.07199 -0.756,-0.072 -0.45601,7e-6 -0.86401,0.08401 -1.224,0.252 -0.36001,0.156007 -0.67201,0.372007 -0.936,0.647997 -0.25201,0.27601 -0.45001,0.61201 -0.594,1.008 -0.13201,0.38401 -0.19801,0.79801 -0.198,1.242 -1e-5,0.21601 0.018,0.42001 0.054,0.612 0.036,0.18001 0.10199,0.34201 0.198,0.486 0.096,0.13201 0.22799,0.24001 0.396,0.324 0.16799,0.084 0.37799,0.12601 0.63,0.126 0.16799,1e-5 0.38999,-0.03 0.666,-0.09 0.28799,-0.06 0.54599,-0.19799 0.774,-0.414 l 0.99,-4.121997"
           id="path3088"
           style="font-style:italic;font-variant:normal;font-weight:bold;font-stretch:normal;fill:#4d4d4d;font-family:Ubuntu;-inkscape-font-specification:Ubuntu Bold Italic" />
        <path
           d="m 226.29183,102.5709 c -0.16801,0.68401 -0.21601,1.37401 -0.144,2.07 0.072,0.684 0.20999,1.296 0.414,1.836 l -2.394,0.342 c -0.072,-0.144 -0.13801,-0.282 -0.198,-0.414 -0.06,-0.132 -0.12001,-0.282 -0.18,-0.45 -0.33601,0.276 -0.70801,0.504 -1.116,0.684 -0.40801,0.18 -0.86401,0.27 -1.368,0.27 -0.60001,0 -1.11601,-0.102 -1.548,-0.306 -0.42001,-0.216 -0.76801,-0.498 -1.044,-0.846 -0.26401,-0.36 -0.45601,-0.774 -0.576,-1.242 -0.12001,-0.47999 -0.18001,-0.98999 -0.18,-1.53 -1e-5,-0.82799 0.14399,-1.60799 0.432,-2.34 0.29999,-0.731991 0.70799,-1.36799 1.224,-1.907997 0.52799,-0.551992 1.14599,-0.983991 1.854,-1.296 0.70799,-0.311991 1.47599,-0.467991 2.304,-0.468 0.10799,9e-6 0.29399,0.006 0.558,0.018 0.27599,0.01201 0.58799,0.04201 0.936,0.09 0.34799,0.03601 0.71399,0.102009 1.098,0.198 0.38398,0.09601 0.74998,0.228009 1.098,0.396 l -1.17,4.895997 m -1.872,-3.311997 c -0.15601,-0.02399 -0.30001,-0.04199 -0.432,-0.054 -0.12001,-0.01199 -0.27001,-0.01799 -0.45,-0.018 -0.40801,7e-6 -0.79201,0.102007 -1.152,0.306 -0.34801,0.204007 -0.65401,0.474006 -0.918,0.809997 -0.26401,0.32401 -0.47401,0.70201 -0.63,1.134 -0.14401,0.43201 -0.21601,0.88201 -0.216,1.35 -10e-6,0.57601 0.096,1.03201 0.288,1.368 0.19199,0.336 0.54599,0.504 1.062,0.504 0.27599,0 0.52199,-0.054 0.738,-0.162 0.22799,-0.10799 0.46799,-0.28799 0.72,-0.54 0.024,-0.29999 0.06,-0.61199 0.108,-0.936 0.06,-0.33599 0.11999,-0.64199 0.18,-0.918 l 0.702,-2.843997"
           id="path3090"
           style="font-style:italic;font-variant:normal;font-weight:bold;font-stretch:normal;fill:#4d4d4d;font-family:Ubuntu;-inkscape-font-specification:Ubuntu Bold Italic" />
        <path
           d="m 235.28617,99.492903 c -0.24001,-0.05999 -0.48001,-0.113993 -0.72,-0.162 -0.228,-0.05999 -0.57,-0.08999 -1.026,-0.09 -0.168,7e-6 -0.354,0.01801 -0.558,0.054 -0.204,0.02401 -0.372,0.05401 -0.504,0.09 l -1.746,7.271997 -2.682,0 2.16,-8.963997 c 0.516,-0.167991 1.092,-0.323991 1.728,-0.468 0.648,-0.155991 1.374,-0.233991 2.178,-0.234 0.29999,9e-6 0.62999,0.03001 0.99,0.09 0.37199,0.04801 0.69599,0.132009 0.972,0.252 l -0.792,2.16"
           id="path3092"
           style="font-style:italic;font-variant:normal;font-weight:bold;font-stretch:normal;fill:#4d4d4d;font-family:Ubuntu;-inkscape-font-specification:Ubuntu Bold Italic" />
        <path
           d="m 238.19792,94.830903 2.79,-0.432 -0.684,2.79 2.988,0 -0.54,2.196 -2.97,0 -0.792,3.311997 c -0.072,0.27601 -0.12,0.53401 -0.144,0.774 -0.012,0.24001 0.018,0.45001 0.09,0.63 0.084,0.16801 0.222,0.3 0.414,0.396 0.192,0.096 0.456,0.144 0.792,0.144 0.288,0 0.564,-0.024 0.828,-0.072 0.276,-0.06 0.55199,-0.138 0.828,-0.234 l 0.198,2.052 c -0.36001,0.132 -0.75,0.246 -1.17,0.342 -0.42,0.096 -0.918,0.144 -1.494,0.144 -0.828,0 -1.47,-0.12 -1.926,-0.36 -0.456,-0.252 -0.78,-0.588 -0.972,-1.008 -0.192,-0.432 -0.276,-0.924 -0.252,-1.476 0.024,-0.55199 0.108,-1.13399 0.252,-1.746 l 1.764,-7.451997"
           id="path3094"
           style="font-style:italic;font-variant:normal;font-weight:bold;font-stretch:normal;fill:#4d4d4d;font-family:Ubuntu;-inkscape-font-specification:Ubuntu Bold Italic" />
      </g>
      <g
         transform="matrix(7.68332,0,0,7.68332,-493.97427,-387.86339)"
         id="flowRoot3170"
         style="font-size:18px;font-style:italic;font-variant:normal;font-weight:bold;font-stretch:normal;line-height:125%;letter-spacing:0px;word-spacing:0px;fill:#000000;fill-opacity:1;stroke:none;font-family:Ubuntu;-inkscape-font-specification:Ubuntu Bold Italic">
        <path
           d="m 97.57525,155.81515 c -0.636005,0 -1.188004,-0.096 -1.656,-0.288 -0.468003,-0.192 -0.858003,-0.462 -1.17,-0.81 -0.300002,-0.348 -0.528002,-0.756 -0.684,-1.224 -0.156002,-0.47999 -0.234002,-1.00799 -0.234,-1.584 -2e-6,-0.71999 0.113998,-1.43999 0.342,-2.16 0.239998,-0.71999 0.587997,-1.36799 1.044,-1.944 0.455996,-0.57599 1.013996,-1.04399 1.674,-1.404 0.659994,-0.37199 1.415994,-0.55799 2.268,-0.558 0.623992,1e-5 1.16999,0.096 1.638,0.288 0.47999,0.19201 0.86999,0.46201 1.17,0.81 0.31199,0.34801 0.54599,0.76201 0.702,1.242 0.15599,0.46801 0.23399,0.99001 0.234,1.566 -1e-5,0.72001 -0.11401,1.44001 -0.342,2.16 -0.22801,0.72001 -0.56401,1.36801 -1.008,1.944 -0.44401,0.576 -1.00201,1.05 -1.674,1.422 -0.660007,0.36 -1.428006,0.54 -2.304,0.54 m 1.332,-7.704 c -0.396006,1e-5 -0.744006,0.11401 -1.044,0.342 -0.300006,0.22801 -0.552005,0.51601 -0.756,0.864 -0.204005,0.34801 -0.360005,0.73201 -0.468,1.152 -0.09601,0.40801 -0.144004,0.79801 -0.144,1.17 -4e-6,0.61201 0.096,1.08601 0.288,1.422 0.191995,0.324 0.539995,0.486 1.044,0.486 0.395994,0 0.743993,-0.114 1.044,-0.342 0.299993,-0.22799 0.551993,-0.51599 0.756,-0.864 0.203992,-0.34799 0.353992,-0.72599 0.45,-1.134 0.10799,-0.41999 0.16199,-0.81599 0.162,-1.188 -1e-5,-0.61199 -0.096,-1.07999 -0.288,-1.404 -0.192008,-0.33599 -0.540007,-0.50399 -1.044,-0.504"
           id="path3071" />
        <path
           d="m 112.60919,153.18715 -0.576,2.376 -8.316,0 2.988,-12.474 2.808,0 -2.43,10.098 5.526,0"
           id="path3073" />
        <path
           d="m 122.30978,151.47715 c -0.16801,0.68401 -0.21601,1.37401 -0.144,2.07 0.072,0.684 0.20999,1.296 0.414,1.836 l -2.394,0.342 c -0.072,-0.144 -0.13801,-0.282 -0.198,-0.414 -0.06,-0.132 -0.12001,-0.282 -0.18,-0.45 -0.33601,0.276 -0.70801,0.504 -1.116,0.684 -0.408,0.18 -0.864,0.27 -1.368,0.27 -0.6,0 -1.116,-0.102 -1.548,-0.306 -0.42,-0.216 -0.768,-0.498 -1.044,-0.846 -0.264,-0.36 -0.456,-0.774 -0.576,-1.242 -0.12,-0.47999 -0.18,-0.98999 -0.18,-1.53 0,-0.82799 0.144,-1.60799 0.432,-2.34 0.3,-0.73199 0.708,-1.36799 1.224,-1.908 0.528,-0.55199 1.146,-0.98399 1.854,-1.296 0.708,-0.31199 1.47599,-0.46799 2.304,-0.468 0.10799,1e-5 0.29399,0.006 0.558,0.018 0.27599,0.012 0.58799,0.042 0.936,0.09 0.34799,0.036 0.71399,0.10201 1.098,0.198 0.38399,0.096 0.74999,0.22801 1.098,0.396 l -1.17,4.896 m -1.872,-3.312 c -0.15601,-0.024 -0.30001,-0.042 -0.432,-0.054 -0.12001,-0.012 -0.27001,-0.018 -0.45,-0.018 -0.40801,1e-5 -0.79201,0.10201 -1.152,0.306 -0.348,0.20401 -0.654,0.47401 -0.918,0.81 -0.264,0.32401 -0.474,0.70201 -0.63,1.134 -0.144,0.43201 -0.216,0.88201 -0.216,1.35 0,0.57601 0.096,1.03201 0.288,1.368 0.192,0.336 0.546,0.504 1.062,0.504 0.276,0 0.52199,-0.054 0.738,-0.162 0.22799,-0.10799 0.46799,-0.28799 0.72,-0.54 0.024,-0.29999 0.06,-0.61199 0.108,-0.936 0.06,-0.33599 0.11999,-0.64199 0.18,-0.918 l 0.702,-2.844"
           id="path3075" />
        <path
           d="m 134.76381,144.42115 c 0.024,0.49201 0.054,1.05001 0.09,1.674 0.048,0.62401 0.096,1.27201 0.144,1.944 0.06,0.66001 0.11999,1.32001 0.18,1.98 0.06,0.66001 0.11999,1.27201 0.18,1.836 0.31199,-0.61199 0.62999,-1.27199 0.954,-1.98 0.32399,-0.70799 0.64799,-1.43999 0.972,-2.196 0.32399,-0.75599 0.64199,-1.52399 0.954,-2.304 0.32399,-0.77999 0.62999,-1.54199 0.918,-2.286 l 2.97,0 c -0.93602,2.28001 -1.89001,4.45201 -2.862,6.516 -0.97201,2.05201 -2.01601,4.038 -3.132,5.958 l -2.628,0 c -0.096,-0.66 -0.18601,-1.29 -0.27,-1.89 -0.072,-0.61199 -0.14401,-1.21199 -0.216,-1.8 -0.06,-0.58799 -0.12001,-1.18199 -0.18,-1.782 -0.048,-0.59999 -0.096,-1.22399 -0.144,-1.872 -0.68401,1.27201 -1.36201,2.52001 -2.034,3.744 -0.66,1.21201 -1.368,2.412 -2.124,3.6 l -2.628,0 c -0.096,-1.116 -0.168,-2.22 -0.216,-3.312 -0.036,-1.09199 -0.054,-2.20199 -0.054,-3.33 0,-0.97199 0.018,-1.93799 0.054,-2.898 0.036,-0.97199 0.084,-1.94999 0.144,-2.934 l 2.826,0 c -0.06,1.05601 -0.12,2.09401 -0.18,3.114 -0.048,1.00801 -0.072,2.05801 -0.072,3.15 0,0.40801 0,0.82201 0,1.242 0,0.42001 0.012,0.84001 0.036,1.26 0.336,-0.58799 0.69,-1.21199 1.062,-1.872 0.372,-0.65999 0.738,-1.31999 1.098,-1.98 0.35999,-0.65999 0.70199,-1.29599 1.026,-1.908 0.32399,-0.62399 0.59999,-1.18199 0.828,-1.674 l 2.304,0"
           id="path3077" />
      </g>
      <g
         id="text5195"
         style="font-size:137.94831848px;font-style:italic;font-variant:normal;font-weight:bold;font-stretch:normal;line-height:125%;letter-spacing:0px;word-spacing:0px;fill:#000000;fill-opacity:1;stroke:none;font-family:Ubuntu;-inkscape-font-specification:Ubuntu Bold Italic">
        <path
           d="m 608.87345,807.94977 -20.41635,0 17.24354,-72.56082 20.5543,0 -17.38149,72.56082 m 9.93228,-81.38951 c -2.85097,8e-5 -5.426,-0.82761 -7.7251,-2.48307 -2.29917,-1.74726 -3.44874,-4.36827 -3.44871,-7.86305 -3e-5,-1.93119 0.36783,-3.72451 1.10359,-5.37999 0.82765,-1.74724 1.88526,-3.21869 3.17281,-4.41434 1.28748,-1.28742 2.75893,-2.29904 4.41434,-3.03487 1.74731,-0.73562 3.58662,-1.10348 5.51794,-1.10358 2.85088,1e-4 5.42591,0.87377 7.7251,2.62101 2.29909,1.65549 3.44866,4.23052 3.44871,7.72511 -5e-5,1.93137 -0.4139,3.77068 -1.24154,5.51793 -0.73577,1.65547 -1.74739,3.12692 -3.03486,4.41435 -1.28756,1.19564 -2.80499,2.16127 -4.55229,2.89691 -1.65543,0.73581 -3.44875,1.10367 -5.37999,1.10359"
           id="path3068" />
      </g>
    </g>
    <path
       d="m 489.22607,845.39763 c -1.17437,-0.028 -1.85912,2.2611 -2.3125,8.8125 -0.448,6.488 -1.63125,10.8463 -3.40625,12.9063 -5.186,6.006 -4.2565,8.6379 -3.3125,10.875 1.526,3.624 -6.30425,5.621 -10.03125,10.125 -5.989,7.242 -1.60525,10.6642 -0.53125,11.5312 l 0.40625,0.5 c 1.91953,0.5203 6.86199,-0.1028 18.84375,-1.8125 0.911,-0.118 1.88125,-0.251 2.90625,-0.375 -1.293,1.266 -3.664,3.5513 -5,4.4063 -4.05,2.588 -3.49725,5.2625 -0.78125,3.5625 0.614,-0.377 1.374,-0.9918 2.25,-1.8438 1.138,-1.103 3.33075,-3.4525 4.84375,-4.4375 -0.356,0.965 -0.679,1.889 -1,2.75 -4.40137,11.2598 -6.15771,15.9144 -6.09375,17.9063 l 0.4375,0.5625 c 0.602,1.243 2.92475,6.294 11.34376,2.125 5.239,-2.597 8.949,-9.7808 12.125,-7.4688 1.961,1.432 4.34,2.921 11.375,-0.75 2.407,-1.261 6.8935,-1.3897 13.3125,-0.3437 11.521,1.8799 10.13825,-0.07 6.65625,-4.625 -3.104,-4.062 -17.40225,-17.8135 -37.03125,-18.3125 0.506,-0.407 1.787,-1.1463 1.5,-1.9063 0.5,-0.171 0.953,-1.069 0.625,-1.5 -0.048,-0.059 -0.1205,-0.091 -0.1875,-0.125 -0.02,-0.073 -0.0469,-0.1568 -0.0937,-0.2187 -0.343,-0.414 -1.31275,-0.1658 -1.59375,0.2812 -0.675,-0.453 -1.6755,0.598 -2.1875,1 4.0069,-19.221 -6.1018,-36.2657 -9.34381,-40.2187 -1.59206,-1.9386 -2.80535,-3.3847 -3.71875,-3.4063 z m -0.125,3.9375 c 1.123,-0.748 17.44251,20.3803 9.93751,41.2813 6.668,-23.954 -13.08051,-39.1793 -9.93751,-41.2813 z m 1.90625,15.9375 c 0.665,-0.498 11.45451,11.9273 7.56251,25.0313 3.269,-14.95 -9.42251,-23.6333 -7.56251,-25.0313 z m -20.15625,27.3438 c 0.11766,-0.013 0.26923,-0.01 0.40625,0 2.4115,0.152 7.97037,3.3004 21.125,2.3125 0.524,-0.04 -22.535,5.6972 -22.875,0.031 0.17664,-1.6155 0.52015,-2.2563 1.34375,-2.3437 z m 33.71876,1.8125 c 20.01688,-0.7257 35.56969,16.8453 34.6875,17.75 -2.642,2.7059 -13.974,-19.5018 -38.75,-17.3438 1.37044,-0.2214 2.72804,-0.3579 4.0625,-0.4062 z m -2.5625,0.8437 c 12.96201,-0.5394 22.53134,11.5483 21.9375,12.0938 -1.717,1.57 -7.91775,-12.473 -23.21875,-12 0.42494,-0.044 0.86312,-0.076 1.28125,-0.094 z m -5.84375,4.5 c -5.69701,18.323 0.777,23.0105 -5.12501,22.3125 -5.447,-1.607 5.28101,-22.8135 5.12501,-22.3125 z"
       id="path11"
       style="fill:#567d2d" />
    <path
       d="m 461.13395,1016.7084 c -2.563,0.471 -12.117,3.796 -16.876,12.6 -0.067,-0.325 -0.121,-1.073 -0.531,-1.119 0.035,-0.269 -0.258,-0.675 -0.53,-0.625 -0.036,0.01 -0.071,0.026 -0.1,0.047 -0.041,-0.01 -0.078,-0.013 -0.113,0 -0.274,0.06 -0.386,0.549 -0.248,0.781 -0.36,0.201 -0.117,0.911 -0.053,1.237 -7.813,-6.265 -17.907,-5.624 -20.455,-5.062 -2.856,0.627 -4.032,0.94 1.075,4 2.848,1.7 4.555,3.236 5.077,4.52 1.534,3.747 2.952,3.932 4.184,4.023 2.001,0.143 1.096,4.169 2.281,6.905 1.911,4.396 4.476,3.19 5.12,2.901 0.751,-0.331 1.526,-2.487 3.82,-9.223 0.16,-0.44 0.33,-0.909 0.509,-1.406 0.276,0.883 0.764,2.479 0.844,3.286 0.243,2.437 1.584,2.805 1.435,1.18 -0.029,-0.37 -0.121,-0.857 -0.307,-1.448 -0.241,-0.773 -0.798,-2.315 -0.901,-3.232 0.358,0.386 0.698,0.753 1.014,1.097 4.735,5.317 6.293,7.002 7.114,7.017 0.703,0.013 3.539,0.128 3.587,-4.661 0.029,-2.978 -2.376,-6.34 -0.586,-7.249 1.1,-0.56 2.334,-1.284 2.289,-5.33 -0.016,-1.38 0.955,-3.458 2.916,-6.132 3.517,-4.801 2.311,-4.63 -0.565,-4.104"
       id="path17"
       style="fill:#567d2d" />
    <path
       d="m 36.836603,839.30865 c -0.420068,0.048 -0.908437,0.7575 -1.5625,1.7187 -1.331,1.96 -5.269,10.2638 -2.625,18.9688 -0.254,-0.164 -0.7715,-0.6111 -1.0625,-0.375 -0.148,-0.194 -0.609,-0.2705 -0.75,-0.062 -0.016,0.029 -0.02425,0.06 -0.03125,0.094 -0.029,0.021 -0.07475,0.035 -0.09375,0.062 -0.133,0.213 0.14,0.5983 0.375,0.6563 -0.098,0.362 0.5,0.6767 0.75,0.8437 -9.027,1.047 -15.0475,7.9648 -16.3125,9.9688 -1.415,2.247 -1.95075,3.222 3.28125,1.875 2.915,-0.749 4.99525,-0.8853 6.15625,-0.4063 3.394,1.403 4.405,0.617 5.25,-0.125 1.368,-1.201 3.38425,1.9575 5.90625,2.9375 4.055,1.576 4.93225,-0.8385 5.15625,-1.4375 0.263,-0.697 -0.64725,-2.584 -3.53125,-8.375 -0.184,-0.382 -0.38875,-0.7867 -0.59375,-1.2187 0.746,0.383 2.08525,1.0682 2.65625,1.5312 1.727,1.403 2.8305,0.7878 1.6875,-0.1562 -0.256,-0.218 -0.625,-0.4588 -1.125,-0.7188 -0.651,-0.338 -2.00325,-0.978 -2.65625,-1.5 0.476,0.015 0.91975,0.046 1.34375,0.062 6.45,0.335 8.5285,0.397 9.0625,-0.125 0.458,-0.444 2.34025,-2.1882 -0.71875,-5.2812 -1.904,-1.924 -5.58625,-2.5463 -5.03125,-4.2813 0.34,-1.071 0.638,-2.318 -2,-4.875 -0.904,-0.876 -1.61675,-2.8375 -2.09375,-5.8125 -0.479813,-3.0049 -0.897412,-4.0305 -1.4375,-3.9687 z m -0.34375,3.875 c 0.386039,-0.067 0.6415,0.5851 0.75,1.7812 0.131,1.432 0.8975,4.3983 2.1875,5.7813 1.511,1.624 1.6285,2.361 1.6875,2.5 -0.286,2.262 -1.612,-0.2528 -3.125,-1.3438 -0.468,-0.044 -0.44225,1.0478 -0.40625,1.3438 0.177,1.426 -0.72625,0.444 -1.28125,0.125 -0.491,-0.295 -0.673,-0.017 -0.75,0.4375 -0.026,2.162 0.21825,4.9752 -1.34375,5.0312 -0.016,0.01 -0.02625,0 -0.03125,0 -2.089,0.093 -0.828,-13.6235 2.125,-15.5625 0.05975,-0.039 0.132352,-0.084 0.1875,-0.094 z m 7.9375,14.2187 c 2.449,1.219 2.85975,3.1628 2.84375,3.8438 -0.313,2.449 -4.64925,1.6317 -4.65625,1.0937 -0.006,-0.483 2.3295,-0.2542 2.4375,-0.7812 0.175,-0.841 -4.12675,-1.1118 -3.84375,-1.9688 0.332,-1.005 3.9885,0.8148 4.0625,-0.031 0.076,-0.852 -1.52975,-1.7523 -0.84375,-2.1563 z m -14.65625,5.3125 c 0.402426,-0.016 0.647875,0.1029 0.75,0.3438 0.002,0.01 0.002,0.016 0,0.031 0.622,1.436 -2.0005,2.421 -3.9375,3.375 -0.378,0.267 -0.5375,0.561 -0.0625,0.875 0.527,0.366 1.7985,0.7335 0.4375,1.1875 -0.282,0.095 -1.26925,0.5345 -1.03125,0.9375 1.637,0.899 4.4795,1.0493 2.5625,2.2813 -0.149,0.01 -0.886,0.1992 -3,-0.4688 -1.801,-0.569 -4.777,0.033 -6.125,0.5313 -1.286,0.476 -2.0145,0.4722 -1.9375,-0.094 0.413875,-3.0669 9.52677,-8.8884 12.34375,-9 z m 5.0625,6.375 c 0.768464,-0.083 2.565312,3.2528 3.21875,2.7813 0.436,-0.3131 -0.692,-2.3715 -0.25,-2.5625 0.493,-0.213 2.98,3.4317 0.875,4.7187 -0.615,0.292 -2.54525,0.7108 -4.65625,-1.0312 0.088,-0.791 1.5645,0.292 2.3125,-0.125 0.737,-0.412 -2.406,-3.0038 -1.625,-3.7188 0.04156,-0.038 0.07377,-0.057 0.125,-0.062 z"
       id="path19"
       style="fill:#567d2d" />
  </g>
</svg>
